<svg width="25" height="24" viewBox="0 0 25 24" fill="none" xmlns="http://www.w3.org/2000/svg">
<g clip-path="url(#clip0_113_1477)">
<path d="M12.4994 20.25C12.4994 20.25 6.69208 14.2373 5.00712 12.5225C3.32216 10.8077 3.33276 7.7509 5.02832 6.04675C6.72387 4.3426 9.48976 4.33195 11.1959 6.02545L11.2383 6.06805C11.6834 6.51539 12.0119 7.04794 12.2132 7.61244C12.4146 8.10238 12.4994 8.26214 12.4994 8.26214C12.4994 8.26214 12.5841 8.11303 12.7749 7.61244C12.9974 7.03729 13.326 6.50474 13.7816 6.0361C15.4878 4.3213 18.2642 4.3213 19.9704 6.0361C21.6765 7.7509 21.6091 10.8861 19.9704 12.5332C18.3316 14.1802 12.4994 20.25 12.4994 20.25Z" stroke="#121331" stroke-width="1.5" stroke-linecap="round" stroke-linejoin="round"/>
</g>
<defs>
<clipPath id="clip0_113_1477">
<rect width="24" height="24" fill="white" transform="translate(0.5)"/>
</clipPath>
</defs>
</svg>
